<?xml version="1.0" encoding="utf-8"?>
<svg version="1.1" id="Layer_1" x="0px" y="0px" viewBox="0 0 800 200" enable-background="new 0 0 800 800" xmlns="http://www.w3.org/2000/svg">
  <g id="XMLID_1_" transform="matrix(1, 0, 0, 1, -0.000023, -16.000011)">
    <polygon id="XMLID_21_" fill="#F79822" points="564.189,85.35 564.189,49.713 493.774,49.713 493.774,72.541 467.109,72.541 &#10;&#9;&#9;467.109,130.694 535.248,130.819 535.248,160.78 492.79,160.311 492.902,149.256 467.109,149.252 467.109,182.431 564.189,182.431 &#10;&#9;&#9;564.189,108.699 494.144,108.699 494.196,73.062 537.154,73.062 536.935,85.35 &#9;"/>
    <g id="XMLID_12_">
      <polygon id="XMLID_20_" fill="#A2A1A0" points="89.326,104.428 45.662,104.428 45.662,49.12 19.463,49.12 19.463,183.024 &#10;&#9;&#9;&#9;45.662,183.024 45.662,130.627 89.326,130.627 89.326,183.024 118.436,183.024 118.436,49.12 89.326,49.12 &#9;&#9;"/>
      <path id="XMLID_17_" fill="#A2A1A0" d="M223.23,104.428h-81.507v78.596h104.795v-29.109H223.23V104.428z M167.922,153.915v-23.288&#10;&#9;&#9;&#9;h29.11v23.288H167.922z"/>
      <polygon id="XMLID_16_" fill="#A2A1A0" points="263.983,104.428 263.983,183.024 345.49,183.024 345.49,153.915 290.182,153.915 &#10;&#9;&#9;&#9;290.182,130.627 345.49,130.627 345.49,104.428 &#9;&#9;"/>
      <polygon id="XMLID_15_" fill="#A2A1A0" points="397.887,49.12 368.778,49.12 368.778,183.024 397.887,183.024 397.887,153.915 &#10;&#9;&#9;&#9;424.086,153.915 424.086,130.627 397.887,130.627 &#9;&#9;"/>
      <rect id="XMLID_14_" x="424.086" y="104.428" fill="#A2A1A0" width="26.199" height="26.199"/>
      <rect id="XMLID_13_" x="424.086" y="153.915" fill="#A2A1A0" width="26.199" height="29.109"/>
    </g>
    <g id="XMLID_9_">
      <polygon id="XMLID_11_" fill="#F79822" points="603.832,130.427 580.666,130.427 580.666,183.024 639.225,183.024 &#10;&#9;&#9;&#9;638.582,160.672 603.832,160.672 &#9;&#9;"/>
      <polygon id="XMLID_10_" fill="#F79822" points="660.461,107.904 603.832,107.904 603.832,130.427 638.582,130.427 &#10;&#9;&#9;&#9;638.582,160.672 660.461,160.672 &#9;&#9;"/>
    </g>
    <g id="XMLID_6_">
      <polygon id="XMLID_8_" fill="#F79822" points="676.608,68.636 676.608,183.01 701.269,183.01 701.269,121.404 724.185,121.404 &#10;&#9;&#9;&#9;724.185,95.354 701.269,95.354 701.269,68.636 &#9;&#9;"/>
      <rect id="XMLID_7_" x="701.269" y="48.976" fill="#F79822" width="22.917" height="19.66"/>
    </g>
    <polygon id="XMLID_5_" fill="#F79822" points="757.486,119.487 780.537,119.487 780.039,95.368 756.288,95.368 756.288,71.868 &#10;&#9;&#9;734.436,71.868 734.436,162.602 757.486,162.602 757.486,183.024 780.039,183.024 780.039,160.028 757.486,160.028 &#9;"/>
  </g>
</svg>