<?xml version="1.0" encoding="utf-8"?>
<svg width="350px" height="350px" class="NavLogo-svgColor" viewBox="0 0 160 160" xmlns="http://www.w3.org/2000/svg">
  <defs>
    <linearGradient id="NavLogo-linearGradient-1" x1="0.722699966430664" x2="-0.045999999046325686" y1="0.3915000152587891" y2="0.3915000152587891">
      <stop stop-color="#517F96" offset="0"/>
      <stop stop-color="#466D81" offset="1"/>
    </linearGradient>
    <linearGradient id="NavLogo-linearGradient-2" x1="0.6241999816894531" x2="0.5" y1="0.3604000091552734" y2="0.6229999923706054">
      <stop stop-color="#09DFF3" offset="0"/>
      <stop stop-color="#44BEFF" offset="1"/>
    </linearGradient>
  </defs>
  <g fill="none" fill-rule="evenodd" transform="matrix(0.180995, 0, 0, 0.180995, 43.620003, 39.638111)">
    <path fill="#5889A2" stroke="#5889A2" stroke-width="8" d="M51 92L201 2l150 90v80L201 82 51 172V92z" class="NavLogo-piece"/>
    <path fill="#5889A2" stroke="#5889A2" stroke-width="8" d="M51 354l150 90 150-90v-80l-150 90-150-90v80z" class="NavLogo-piece"/>
    <path fill="url(#NavLogo-linearGradient-1)" d="M0 90l100 20L0 170V90z" class="NavLogo-shadow" transform="translate(51 2)"/>
    <path fill="url(#NavLogo-linearGradient-1)" d="M200 272l100 20-100 60v-80z" class="NavLogo-shadow" transform="rotate(180 275.5 313)"/>
    <path fill="url(#NavLogo-linearGradient-2)" stroke="url(#NavLogo-linearGradient-2)" stroke-width="8" d="M0 91l150 90 150 90v80l-150-90L0 171V91z" class="NavLogo-piece" transform="translate(51 2)"/>
  </g>
</svg>