<?xml version="1.0" encoding="UTF-8"?>
<svg width="500px" height="370px" viewBox="0 0 500 370" version="1.1" xmlns="http://www.w3.org/2000/svg" xmlns:xlink="http://www.w3.org/1999/xlink">
    <!-- Generator: Sketch 45.1 (43504) - http://www.bohemiancoding.com/sketch -->
    <title>tick42</title>
    <desc>Created with Sketch.</desc>
    <defs>
        <polygon id="path-1" points="0.06 0.078 0.06 40 8.001 40 15.942 40 15.942 0.078"></polygon>
    </defs>
    <g id="Page-1" stroke="none" stroke-width="1" fill="none" fill-rule="evenodd">
        <g id="tick42">
            <g id="Tick42_white" transform="translate(126.000000, 48.000000)">
                <g id="Group-3" transform="translate(0.000000, 234.000000)">
                    <mask id="mask-2" fill="white">
                        <use xlink:href="#path-1"></use>
                    </mask>
                    <g id="Clip-2"></g>
                    <polyline id="Fill-1" fill="#000000" mask="url(#mask-2)" points="15.942 3.214 9.77 3.214 9.77 40 6.223 40 6.223 3.214 0 3.214 0 0.078 15.942 0.078 15.942 3.214"></polyline>
                </g>
                <polygon id="Fill-4" fill="#000000" points="49.664 274 53.211 274 53.211 234.078 49.664 234.078"></polygon>
                <path d="M103.672,271.168 C103.672,272.001 103.402,272.679 102.857,273.209 C102.312,273.736 101.623,274 100.793,274 L90.511,274 C89.676,274 88.999,273.736 88.471,273.209 C87.941,272.679 87.678,272.001 87.678,271.168 L87.678,236.91 C87.678,236.076 87.941,235.396 88.471,234.872 C88.999,234.341 89.676,234.078 90.511,234.078 L100.793,234.078 C101.623,234.078 102.312,234.341 102.857,234.872 C103.402,235.396 103.672,236.076 103.672,236.91 L103.672,240.446 L100.102,240.446 L100.102,237.214 L91.225,237.214 L91.225,270.86 L100.102,270.86 L100.102,267.548 L103.672,267.548 L103.672,271.168" id="Fill-5" fill="#000000"></path>
                <polyline id="Fill-6" fill="#000000" points="155.2 274 151.296 274 142.086 254.817 142.086 274 138.544 274 138.544 234.078 142.086 234.078 142.086 252.01 150.453 234.078 154.307 234.078 154.307 234.308 145.276 253.312 155.2 274"></polyline>
                <polyline id="Fill-7" fill="#000000" points="204.495 263.591 199.475 263.591 199.475 274 196.132 274 196.132 263.591 184.857 263.591 184.857 261.778 194.527 234.078 197.864 234.078 197.864 234.232 188.681 260.581 204.495 260.581 204.495 263.591"></polyline>
                <path d="M248.134,274 L232.297,274 L232.297,272.111 L244.518,246.733 L244.518,237.214 L236.377,237.214 L236.377,240.33 L232.805,240.33 L232.805,236.91 C232.805,236.076 233.068,235.396 233.599,234.872 C234.122,234.341 234.803,234.078 235.637,234.078 L245.259,234.078 C246.09,234.078 246.767,234.341 247.293,234.872 C247.824,235.396 248.084,236.076 248.084,236.91 L248.084,245.381 C248.084,246.399 247.77,247.567 247.144,248.874 L236.578,270.86 L248.134,270.86 L248.134,274" id="Fill-8" fill="#000000"></path>
                <polyline id="Fill-9" fill="#E5E996" points="207.778 43.532 123.842 0.088 40.781 43.519 59.331 53.641 59.331 117.002 101.398 140.011 101.398 76.049 123.842 88.005 123.842 88.24 207.778 43.532"></polyline>
                <polyline id="Fill-10" fill="#E5E996" points="124.291 204.386 207.351 155.407 40.875 110.479 40.825 154.904 124.291 204.298"></polyline>
                <polyline id="Fill-11" fill="#CFD930" points="124.291 129.419 168.787 104.461 168.836 115.702 124.291 141.033 124.291 204.386 207.802 155.13 207.802 128.262 170.899 147.517 170.899 137.888 207.802 118.637 207.802 43.519 124.291 88.005 124.291 129.419"></polyline>
                <polyline id="Fill-12" fill="#6A9941" points="169.043 101.25 124.291 124.348 124.291 88.005 92.736 70.506 92.736 110.935 64.628 96.304 64.628 56.401 40.781 43.519 40.847 119.695 93.123 149.822 93.123 185.874 124.291 204.386 124.291 140.923 169.043 116.643 169.043 101.25"></polyline>
                <polyline id="Fill-13" fill="#6A9941" points="170.899 137.888 170.899 147.517 207.802 128.262 196.005 124.791 170.899 137.888"></polyline>
            </g>
        </g>
    </g>
</svg>
